<svg width="135" height="24" viewBox="0 0 135 24" fill="none" xmlns="http://www.w3.org/2000/svg">
<path fill-rule="evenodd" clip-rule="evenodd" d="M11.5628 2.7402L13.0973 0L17.4475 2.5902L15.9136 5.3298C15.6442 5.8104 16.0475 6.3948 16.5758 6.2898L19.5156 5.7048L20.467 10.791L17.5272 11.3754C12.772 12.321 9.14154 7.065 11.5628 2.7402Z" fill="#090C1B"/>
<path fill-rule="evenodd" clip-rule="evenodd" d="M8.90418 21.2594L7.36972 23.9996L3.01888 21.41L4.55334 18.6698C4.82276 18.1892 4.4195 17.6048 3.89056 17.7098L0.951401 18.2942L0 13.2086L2.93974 12.6242C7.695 11.6786 11.3249 16.9346 8.90418 21.2594Z" fill="#090C1B"/>
<path fill-rule="evenodd" clip-rule="evenodd" d="M9.03778 2.7402L7.5039 0L3.15306 2.5902L4.68752 5.3298C4.95636 5.8104 4.55369 6.3948 4.02474 6.2898L1.085 5.7048L0.134766 10.791L3.07392 11.3754C7.82976 12.321 11.4602 7.065 9.03836 2.7402H9.03778Z" fill="#090C1B"/>
<path fill-rule="evenodd" clip-rule="evenodd" d="M11.4348 21.2594L12.9681 23.9996L17.319 21.41L15.7845 18.6698C15.5157 18.1892 15.9183 17.6048 16.4473 17.7098L19.3864 18.2942L20.3378 13.2086L17.3981 12.6242C12.6428 11.6786 9.01298 16.9346 11.4337 21.2594H11.4348Z" fill="#090C1B"/>
<path d="M34.0523 21.0002C30.0639 21.0002 27.4492 18.7281 27.4492 14.4592V4.2002H30.4184V14.4592C30.4184 17.0756 31.7479 18.292 34.0523 18.292C36.3346 18.292 37.6641 17.0756 37.6641 14.4592V4.2002H40.6554V14.4592C40.6554 18.7281 38.0408 21.0002 34.0523 21.0002Z" fill="#090C1B"/>
<path d="M42.5437 20.7248V8.79036H45.247V10.9248C46.0226 9.24938 47.2634 8.65265 48.7258 8.65265H49.6343V11.3149H48.6151C46.6651 11.3149 45.3357 12.1641 45.3357 14.9412V20.7248H42.5437Z" fill="#090C1B"/>
<path d="M50.9508 20.7248V4.2002H53.7427V10.2822C54.5183 9.18052 55.6927 8.51495 57.288 8.51495C60.6339 8.51495 62.4509 11.2002 62.4509 14.7576C62.4509 18.3149 60.6339 21.0002 57.288 21.0002C55.6262 21.0002 54.4075 20.2658 53.632 19.0723V20.7248H50.9508ZM53.6984 14.7576C53.6984 17.0527 54.6291 18.5904 56.6455 18.5904C58.684 18.5904 59.6146 17.0527 59.6146 14.7576C59.6146 12.4625 58.684 10.9248 56.6455 10.9248C54.6291 10.9248 53.6984 12.4625 53.6984 14.7576Z" fill="#090C1B"/>
<path d="M71.1694 20.7248V19.3477C70.1723 20.5871 68.9536 21.0002 67.5133 21.0002C65.0094 21.0002 63.3033 19.7149 63.3033 17.3969C63.3033 15.2854 64.7435 14.2297 67.7349 13.7018L71.0808 13.0822V12.3936C71.0808 11.3149 70.4603 10.7412 68.9757 10.7412C67.7127 10.7412 66.6491 11.292 66.5827 12.6002H63.8351C63.8794 9.75429 66.1838 8.51495 68.9536 8.51495C72.233 8.51495 73.8062 9.892 73.8062 12.0723V20.7248H71.1694ZM66.1617 17.3051C66.1617 18.2461 66.7821 18.8658 68.1337 18.8658C69.5962 18.8658 71.0808 18.0625 71.0808 16.0887V15.033L68.2445 15.6297C66.9372 15.9051 66.1617 16.2264 66.1617 17.3051Z" fill="#090C1B"/>
<path d="M83.1135 13.5412C83.1135 12.0953 82.493 11.0395 80.8977 11.0395C79.9449 11.0395 78.4381 11.5904 78.2387 13.6789V20.7248H75.4468V8.79036H78.1501V10.4199C78.9478 9.31823 80.1443 8.51495 81.784 8.51495C84.443 8.51495 85.8832 10.3969 85.8832 13.1969V20.7248H83.1135V13.5412Z" fill="#090C1B"/>
<path d="M93.1755 21.0002C89.4751 21.0002 87.3479 18.3149 87.3479 14.7576C87.3479 11.2002 89.4751 8.51495 93.1755 8.51495C96.8759 8.51495 99.0031 11.2002 99.0031 14.7576C99.0031 18.3149 96.8759 21.0002 93.1755 21.0002ZM90.1842 14.7576C90.1842 17.0527 91.1148 18.5904 93.1755 18.5904C95.2362 18.5904 96.1668 17.0527 96.1668 14.7576C96.1668 12.4625 95.2362 10.9248 93.1755 10.9248C91.1148 10.9248 90.1842 12.4625 90.1842 14.7576Z" fill="#090C1B"/>
<path d="M103.232 15.974C103.232 17.4199 103.852 18.4756 105.448 18.4756C106.4 18.4756 107.907 17.9248 108.107 15.8363V8.79036H110.899V20.7248H108.195V19.0953C107.398 20.1969 106.201 21.0002 104.561 21.0002C101.902 21.0002 100.462 19.1182 100.462 16.3182V8.79036H103.232V15.974Z" fill="#090C1B"/>
<path d="M117.349 21.0002C114.291 21.0002 112.252 19.8068 112.075 16.8002H114.778C114.956 18.4068 115.886 18.9117 117.437 18.9117C118.767 18.9117 119.675 18.4068 119.675 17.5117C119.675 16.6625 119.343 16.2723 116.972 15.8592C113.36 15.2166 112.341 14.0461 112.341 12.0953C112.341 9.8461 114.247 8.51495 117.105 8.51495C120.429 8.51495 122.113 10.0986 122.157 12.5772H119.565C119.498 10.9936 118.39 10.6035 117.105 10.6035C115.953 10.6035 115.066 11.0854 115.066 11.9805C115.066 12.8527 115.598 13.1969 117.903 13.5871C121.426 14.1838 122.445 15.3313 122.445 17.3281C122.445 19.7149 120.318 21.0002 117.349 21.0002Z" fill="#090C1B"/>
<path d="M128.824 21.0002C125.256 21.0002 123.129 18.3149 123.129 14.7576C123.129 11.2002 125.256 8.51495 128.824 8.51495C132.391 8.51495 134.518 11.1084 134.518 14.9871V15.6756H125.899C126.142 17.5346 127.162 18.7281 128.824 18.7281C130.175 18.7281 131.084 18.1313 131.571 17.0756H134.297C133.543 19.4395 131.571 21.0002 128.824 21.0002ZM125.921 13.61H131.704C131.416 11.8658 130.419 10.7871 128.824 10.7871C127.228 10.7871 126.231 11.8658 125.921 13.61Z" fill="#090C1B"/>
</svg>
