<svg width="1341" height="216" viewBox="0 0 1341 216" fill="none" xmlns="http://www.w3.org/2000/svg">
<path d="M117.898 0H158.253V138.248C158.253 153.771 154.929 167.353 148.281 178.995C141.695 190.637 132.468 199.715 120.601 206.229C108.733 212.674 94.9085 215.896 79.1266 215.896C63.2827 215.896 49.427 212.674 37.5595 206.229C25.6921 199.715 16.4653 190.637 9.87918 178.995C3.29306 167.353 0 153.771 0 138.248V0H40.3555V134.402C40.3555 142.51 41.9399 149.717 45.1087 156.023C48.3396 162.329 52.8754 167.284 58.7159 170.887C64.5564 174.491 71.36 176.293 79.1266 176.293C86.9554 176.293 93.759 174.491 99.5374 170.887C105.378 167.284 109.883 162.329 113.051 156.023C116.282 149.717 117.898 142.51 117.898 134.402V0Z" fill="#070C29"/>
<path d="M185.461 212.882V53.2204H223.953V81.078H225.444C228.053 71.1684 232.434 63.6843 238.585 58.6256C244.736 53.4976 251.819 50.9336 259.835 50.9336C261.823 50.9336 263.966 51.0722 266.265 51.3494C268.564 51.6266 270.584 52.0077 272.323 52.4928V91.7844C270.459 91.1607 267.881 90.6063 264.588 90.1213C261.295 89.6362 258.281 89.3936 255.547 89.3936C249.707 89.3936 244.488 90.8142 239.89 93.6554C235.354 96.4273 231.75 100.308 229.079 105.297C226.469 110.287 225.164 116.038 225.164 122.552V212.882H185.461Z" fill="#070C29"/>
<path d="M288.347 212.882V0H328.05V80.0385H329.262C331.002 75.7421 333.518 71.3763 336.811 66.9413C340.166 62.437 344.516 58.6949 349.859 55.7151C355.265 52.666 361.975 51.1415 369.99 51.1415C380.429 51.1415 390.059 54.1906 398.882 60.2887C407.705 66.3176 414.757 75.4302 420.039 87.6266C425.32 99.7536 427.961 114.964 427.961 133.259C427.961 151.068 425.382 166.106 420.225 178.372C415.13 190.568 408.171 199.819 399.348 206.125C390.587 212.362 380.77 215.48 369.897 215.48C362.192 215.48 355.637 214.06 350.232 211.218C344.888 208.377 340.508 204.808 337.091 200.512C333.673 196.146 331.064 191.746 329.262 187.311H327.491V212.882H288.347ZM327.211 133.051C327.211 142.545 328.392 150.826 330.753 157.894C333.114 164.962 336.531 170.472 341.005 174.422C345.479 178.302 350.915 180.243 357.315 180.243C363.777 180.243 369.245 178.268 373.718 174.318C378.192 170.298 381.578 164.755 383.877 157.686C386.238 150.549 387.419 142.337 387.419 133.051C387.419 123.834 386.269 115.727 383.97 108.728C381.671 101.729 378.285 96.2541 373.811 92.3041C369.338 88.3542 363.839 86.3792 357.315 86.3792C350.853 86.3792 345.385 88.2849 340.912 92.0962C336.5 95.9076 333.114 101.313 330.753 108.312C328.392 115.311 327.211 123.557 327.211 133.051Z" fill="#070C29"/>
<path d="M490.025 215.896C480.891 215.896 472.752 214.129 465.607 210.595C458.461 206.991 452.807 201.69 448.644 194.691C444.544 187.623 442.493 178.822 442.493 168.289C442.493 159.419 443.953 151.969 446.874 145.94C449.794 139.911 453.77 135.061 458.803 131.388C463.836 127.715 469.552 124.943 475.952 123.072C482.414 121.201 489.186 119.884 496.269 119.122C504.595 118.152 511.306 117.251 516.401 116.42C521.496 115.519 525.192 114.202 527.491 112.47C529.79 110.737 530.94 108.173 530.94 104.778V104.154C530.94 97.5707 529.076 92.4774 525.348 88.8739C521.682 85.2704 516.463 83.4687 509.69 83.4687C502.545 83.4687 496.86 85.2358 492.635 88.77C488.41 92.2348 485.614 96.6006 484.247 101.867L447.526 98.5409C449.39 88.8393 453.056 80.4543 458.524 73.3859C463.991 66.2483 471.043 60.7738 479.68 56.9625C488.379 53.0818 498.444 51.1415 509.877 51.1415C517.83 51.1415 525.441 52.1809 532.711 54.2599C540.042 56.3388 546.535 59.5611 552.189 63.9268C557.906 68.2926 562.41 73.9057 565.703 80.7661C568.996 87.5573 570.643 95.6997 570.643 105.193V212.882H532.99V190.741H531.872C529.573 195.73 526.497 200.131 522.645 203.942C518.793 207.684 514.164 210.629 508.758 212.778C503.353 214.857 497.108 215.896 490.025 215.896ZM501.395 185.336C507.236 185.336 512.393 184.054 516.867 181.49C521.34 178.857 524.851 175.322 527.398 170.887C529.946 166.452 531.219 161.428 531.219 155.815V138.872C529.977 139.773 528.268 140.604 526.093 141.367C523.981 142.06 521.589 142.718 518.917 143.342C516.245 143.896 513.574 144.416 510.902 144.901C508.23 145.317 505.807 145.698 503.632 146.044C498.972 146.807 494.903 148.019 491.423 149.682C487.944 151.346 485.241 153.598 483.315 156.439C481.389 159.211 480.425 162.676 480.425 166.833C480.425 172.862 482.383 177.471 486.297 180.658C490.274 183.777 495.306 185.336 501.395 185.336Z" fill="#070C29"/>
<path d="M635.9 120.577V212.882H596.196V53.2204H634.036V81.3898H635.713C638.882 72.1039 644.194 64.7584 651.65 59.3532C659.106 53.8787 668.147 51.1415 678.771 51.1415C688.713 51.1415 697.38 53.5669 704.774 58.4177C712.168 63.2685 717.915 70.1983 722.016 79.2069C726.117 88.1463 728.167 98.8181 728.167 111.222V212.882H688.464V119.122C688.526 109.351 686.29 101.729 681.754 96.2541C677.218 90.7103 670.974 87.9384 663.021 87.9384C657.677 87.9384 652.955 89.2204 648.854 91.7844C644.816 94.3484 641.647 98.0905 639.348 103.011C637.111 107.861 635.962 113.717 635.9 120.577Z" fill="#070C29"/>
<path d="M818.891 216C804.414 216 791.894 212.57 781.331 205.709C770.831 198.78 762.722 189.147 757.006 176.812C751.29 164.408 748.432 150.029 748.432 133.675C748.432 117.182 751.29 102.768 757.006 90.4331C762.722 78.0289 770.831 68.3965 781.331 61.5361C791.894 54.6063 804.414 51.1415 818.891 51.1415C833.368 51.1415 845.857 54.6063 856.357 61.5361C866.92 68.3965 875.059 78.0289 880.776 90.4331C886.492 102.768 889.35 117.182 889.35 133.675C889.35 150.029 886.492 164.408 880.776 176.812C875.059 189.147 866.92 198.78 856.357 205.709C845.857 212.57 833.368 216 818.891 216ZM819.077 181.698C825.663 181.698 831.162 179.619 835.574 175.461C839.985 171.234 843.309 165.482 845.546 158.206C847.845 150.93 848.994 142.649 848.994 133.363C848.994 124.077 847.845 115.796 845.546 108.52C843.309 101.243 839.985 95.4918 835.574 91.2647C831.162 87.0375 825.663 84.924 819.077 84.924C812.429 84.924 806.837 87.0375 802.301 91.2647C797.828 95.4918 794.441 101.243 792.143 108.52C789.906 115.796 788.787 124.077 788.787 133.363C788.787 142.649 789.906 150.93 792.143 158.206C794.441 165.482 797.828 171.234 802.301 175.461C806.837 179.619 812.429 181.698 819.077 181.698Z" fill="#070C29"/>
<path d="M1001.72 144.901V53.2204H1041.42V212.882H1003.3V183.881H1001.81C998.581 193.236 993.207 200.755 985.689 206.437C978.233 212.119 969.13 214.961 958.381 214.961C948.813 214.961 940.394 212.535 933.124 207.684C925.854 202.833 920.169 195.938 916.068 186.999C912.03 178.06 909.979 167.353 909.917 154.88V53.2204H949.62V146.98C949.682 156.404 951.95 163.854 956.424 169.328C960.898 174.803 966.893 177.54 974.412 177.54C979.196 177.54 983.669 176.327 987.832 173.902C991.995 171.407 995.35 167.734 997.898 162.884C1000.51 158.033 1001.78 152.038 1001.72 144.901Z" fill="#070C29"/>
<path d="M1187.04 98.7488L1150.69 101.243C1150.07 97.7786 1148.74 94.6602 1146.68 91.8884C1144.63 89.0472 1141.93 86.795 1138.58 85.1318C1135.28 83.3994 1131.34 82.5332 1126.74 82.5332C1120.59 82.5332 1115.4 83.9884 1111.18 86.8989C1106.95 89.7401 1104.84 93.5515 1104.84 98.333C1104.84 102.144 1106.21 105.367 1108.94 108C1111.67 110.633 1116.36 112.747 1123.01 114.341L1148.92 120.162C1162.84 123.349 1173.22 128.477 1180.05 135.546C1186.89 142.614 1190.3 151.9 1190.3 163.403C1190.3 173.867 1187.54 183.049 1182.01 190.949C1176.54 198.849 1169.02 205.016 1159.45 209.451C1149.95 213.817 1138.98 216 1126.55 216C1107.6 216 1092.5 211.6 1081.26 202.799C1070.07 193.929 1063.52 181.871 1061.59 166.626L1100.64 164.339C1101.82 170.783 1104.68 175.704 1109.22 179.099C1113.75 182.425 1119.56 184.089 1126.65 184.089C1133.61 184.089 1139.2 182.599 1143.42 179.619C1147.71 176.57 1149.88 172.654 1149.95 167.873C1149.88 163.854 1148.36 160.562 1145.38 157.998C1142.4 155.365 1137.8 153.355 1131.59 151.969L1106.8 146.46C1092.82 143.342 1082.41 137.936 1075.57 130.244C1068.8 122.552 1065.41 112.747 1065.41 100.828C1065.41 90.5717 1067.9 81.7363 1072.87 74.3215C1077.9 66.9066 1084.96 61.1896 1094.03 57.1704C1103.16 53.1511 1113.85 51.1415 1126.09 51.1415C1144.17 51.1415 1158.4 55.4033 1168.77 63.9268C1179.21 72.4504 1185.3 84.0577 1187.04 98.7488Z" fill="#070C29"/>
<path d="M1275.29 216C1260.57 216 1247.89 212.674 1237.27 206.021C1226.71 199.299 1218.57 189.806 1212.85 177.54C1207.13 165.205 1204.28 150.618 1204.28 133.779C1204.28 117.355 1207.13 102.941 1212.85 90.537C1218.57 78.1328 1226.61 68.4658 1236.99 61.5361C1247.43 54.6063 1259.67 51.1415 1273.71 51.1415C1283.15 51.1415 1291.95 52.8393 1300.09 56.2348C1308.29 59.5611 1315.43 64.5852 1321.52 71.307C1327.67 78.0289 1332.46 86.4832 1335.87 96.6699C1339.29 106.787 1341 118.637 1341 132.219V144.381H1220.12V116.939H1303.63C1303.63 110.564 1302.38 104.916 1299.9 99.9961C1297.41 95.076 1293.97 91.23 1289.55 88.4581C1285.2 85.6169 1280.14 84.1963 1274.36 84.1963C1268.34 84.1963 1262.99 85.7555 1258.33 88.8739C1253.73 91.923 1250.13 96.0462 1247.52 101.243C1244.91 106.372 1243.58 112.089 1243.51 118.395V144.485C1243.51 152.385 1244.82 159.211 1247.43 164.962C1250.1 170.714 1253.86 175.149 1258.7 178.268C1263.55 181.386 1269.3 182.945 1275.95 182.945C1280.36 182.945 1284.4 182.252 1288.06 180.866C1291.73 179.48 1294.87 177.401 1297.48 174.629C1300.09 171.858 1302.07 168.462 1303.44 164.443L1340.16 167.145C1338.3 176.986 1334.48 185.578 1328.7 192.924C1322.98 200.2 1315.59 205.883 1306.52 209.971C1297.51 213.99 1287.1 216 1275.29 216Z" fill="#070C29"/>
</svg>
